<?xml version="1.0" encoding="utf-8"?>
<!-- Generator: Adobe Illustrator 25.3.0, SVG Export Plug-In . SVG Version: 6.00 Build 0)  -->
<svg version="1.1" id="Capa_1" xmlns="http://www.w3.org/2000/svg" xmlns:xlink="http://www.w3.org/1999/xlink" x="0px" y="0px"
	 viewBox="0 0 900 900" style="enable-background:new 0 0 900 900;" xml:space="preserve">
<style type="text/css">
	.st0{fill:#58BF88;}
	.st1{fill:#050403;}
	.st2{fill:#E9C769;}
	.st3{fill:#B5733C;}
	.st4{fill:#FCEB94;}
	.st5{fill:#62371C;}
	.st6{fill:#AE0B00;}
	.st7{fill:#EBC96A;}
	.st8{fill:#720300;}
	.st9{fill:#729300;}
	.st10{fill:#FAEA93;}
	.st11{fill:#272727;}
	.st12{fill:#F4F2F1;}
	.st13{fill:#587B00;}
	.st14{fill:#673E21;}
</style>
<circle class="st0" cx="450" cy="450" r="379.88"/>
<g>
	<g>
		<path class="st1" d="M302.84,256.71c1.5-4.47,2.82-9.02,4.54-13.41c3.73-9.55,10.59-16.77,18.18-23.31
			c4.29-3.7,8.23-8.04,14.19-9.22c0.85-0.17,1.73-0.7,2.51-0.56c5.28,0.97,7.84-1.73,10.11-6.17c4.01-7.81,11.45-11.8,19.07-15.37
			c8.97-4.2,18.47-7.03,27.74-10.45c5.81-2.14,12.25-1.83,18.44-2.21c16.17-1,32.39-1.46,48.55-0.72c18.74,0.86,37.6,1.5,55.84,6.66
			c10.56,2.99,20.33,7.96,29.93,13.23c11.09,6.1,21.85,12.75,32.48,19.62c13.64,8.8,21.99,21.95,29.67,35.71
			c3.94,7.05,7.67,14.2,11.1,21.51c2.54,5.42,2.79,11.03,1.85,16.78c-0.88,5.4-2.25,10.71-2.68,16.21c-0.2,2.59,0.54,3.28,2.99,3.15
			c9.57-0.51,19.17-0.74,28.73-1.4c4.94-0.34,8.2,0.94,10.84,5.59c6.59,11.64,9.38,23.82,6.79,36.98
			c-1.25,6.35-4.69,11.72-8.89,16.6c-1.4,1.63-2.84,1.64-4.56,0.56c-2.28-1.44-3.36-0.63-3.61,1.94c-0.44,4.58-1.05,9.14-1.46,13.72
			c-0.34,3.77-1.61,6.88-4.83,9.21c-3.22,2.32-5.78,5.44-9.12,7.69c-7.29,4.92-9.85,5-17.15-0.15c-1.12,4.83-2.12,9.6-3.35,14.32
			c-2.64,10.05-7.03,19.39-12.27,28.28c-2.77,4.71-8.39,5.98-12.79,8.67c-2.75,1.68-5.81,2.86-8.63,4.43
			c-4.78,2.66-8.26,6.65-11.29,11.16c-4.47,6.64-9.58,12.71-16.32,17.22c-1.69,1.13-4.79,1.25-5.01,3
			c-0.22,1.69,1.57,3.79,2.78,5.49c2.82,3.97,3.07,8.6,3.61,13.14c0.19,1.59,0.59,2.73,1.83,3.83
			c13.65,12.18,22.22,27.82,28.55,44.53c7.54,19.91,12.53,40.63,15.41,61.76c2.29,16.77,2.48,33.65-1.01,50.24
			c-2.6,12.33-10.49,21.23-21.44,27.36c-4.67,2.61-9.6,4.63-14.9,5.6c-2.34,0.43-3.33,1.44-3.38,4.2
			c-0.5,25.18-0.32,50.38-2.05,75.53c-0.31,4.45-1.18,7.85-6.14,8.71c-4.53,0-9.07,0.01-13.61,0.01c-0.74-0.08-1.47-0.23-2.21-0.24
			c-31.28-0.16-62.55-0.14-93.83-0.53c-20.81-0.26-41.62-0.64-62.43-0.71c-14.33-0.05-28.66-0.31-42.99-0.61
			c-7.07-0.15-8.63-1.68-9.51-8.8c-0.22-1.83-0.14-3.75,0.13-5.58c1.23-8.39,5.99-14.61,12.6-19.49c2.16-1.59,2.75-3.32,2.81-5.92
			c0.32-15.6-1.16-31.17-0.79-46.76c0.06-2.4-0.92-3.02-3.04-3c-1.98,0.02-3.95,0.04-5.93-0.5c-18.79-5.1-31.48-21.46-32.25-40.92
			c-0.87-21.99,1.64-43.53,8.07-64.54c7.2-23.53,17.49-45.64,31.55-65.9c0.77-1.11,0.99-2.2,1.14-3.45
			c0.79-6.4,0.78-12.95,3.2-19.08c0.61-1.54-0.09-2.53-1.16-3.57c-10.54-10.3-18.59-22.39-24.6-35.75
			c-3.92-8.71-7.32-17.71-8.4-27.35c-1.45-12.88-2.31-25.81-3.21-38.74c-2.3-32.9-1.76-65.79-0.19-98.69
			c0.26-5.45,1.15-10.57-3.76-14.9c-3.84-3.38-4.09-9-6.42-13.39C302.84,264.2,302.84,260.46,302.84,256.71z M314.64,256.13
			c-0.8,1.79-1.44,3.62-1.09,5.63c-0.84,5.5,1.67,11.41,5.92,13.91c3.84,2.26,5.09,1.74,6.73-2.34c1.1-2.71,2-6.25,5.72-6
			c3.73,0.25,4.03,3.77,4.74,6.67c1.34,5.43,0.33,11.25,2.76,16.48c1.82,5.66,4.4,10.89,8.65,16.13
			c1.23-11.51,2.72-21.99,5.93-32.14c5.98-0.9,9.64,3.03,8.47,9.54c-0.39,2.15,0.04,2.9,1.98,3.35c6.26,1.45,12.5,3.02,19.02,2.63
			c0.25,0.63,0.69,1.04,1.38,1.07c12.69,0.55,24.89-2.03,36.92-5.79c1.15-0.36,1.77-1.06,1.48-2.18c-0.86-3.29-1.37-6.76-4.1-9.22
			c-0.09-0.74-0.23-1.47-0.27-2.21c-0.13-2.82,0.8-5.35,3.4-6.47c2.84-1.23,4.51,0.95,6.03,3.03c3.64,5,5.23,10.87,7.25,16.58
			c0.43,1.2,0.24,3.2,1.77,3.38c1.81,0.21,2.39-1.84,3.34-3.06c0.27-0.34,0.22-0.94,0.31-1.42c2.39-1.59,2.67-4.39,3.5-6.73
			c2.06-5.81,2.05-11.41-3.28-15.78c1.3-7.03,3.77-8.25,9.79-4.81c0.54,0.31,1.04,0.68,1.56,1.02
			c4.59,10.47,10.77,20.17,14.83,30.89c0.78,2.06,1.75,0.96,2.22-0.09c1.34-2.94,2.48-5.97,3.73-8.95c1.69-4.03,4.51-4.6,7.83-1.7
			c1.57,1.37,2.28,3.23,3.25,4.96c1.4,2.5,2.18,5.39,4.51,7.74c0.67-1.45,1.19-2.57,1.7-3.69c2.18-4.83,2.22-10.16,3.53-15.2
			c1.2-4.59,3.47-5.49,7.5-2.8c2.81,1.88,5.63,3.72,9.16,3.83c12.31,0.38,24.49,2.25,36.6,4.12c21.91,3.37,43.36,8.68,63.57,18.22
			c4.49,2.12,5.01,1.65,5.33-3.41c0.02-0.25,0-0.5,0.01-0.75c0.65-8.32-1.46-16.01-5.14-23.39c-4.39-8.79-9.39-17.19-15.54-24.88
			c-0.31-1.64-1.24-2.97-2.2-4.27c-5.99-8.11-13.28-14.66-22.58-18.79c-0.41-1.35-1.66-1.82-2.69-2.46
			c-4.13-2.54-8.29-5.03-12.47-7.51c-21.23-12.6-43.65-21.4-68.73-22.21c-16.44-0.53-32.85-1.76-49.31-1.59
			c-19.82,0.21-39.17,2.76-57.5,10.77c-9.09,3.97-17.74,8.54-22.64,17.89c-0.86,1.63-2.32,2.94-3.29,4.53
			c-1.22,1.99-2.66,2.69-5.14,2.64c-3.17-0.06-6.48,0.48-9.41,1.92C325.91,230.04,318.03,241.39,314.64,256.13z M445.73,604.96
			c0.05,2.48,0.09,4.96,0.14,7.45c-0.41,6.76-0.4,6.86,6.14,6.7c14.55-0.37,29.08-1.16,43.59-2.16c2.62-0.18,2.81-1.34,2.31-3.38
			c-4.85-19.55-9.72-39.09-14.49-58.66c-0.44-1.82-1.17-2.38-2.99-2.42c-4.87-0.11-9.69,0.49-14.52,0.95
			c-3.12-0.33-5.22-1.96-5.95-5.02c-0.59-2.51,0.49-4.3,2.92-5.22c4.8-0.63,9.65-0.26,14.46-0.99c5.27-0.81,5.16-0.64,5.79-6.14
			c0.78-6.76,3.01-13.12,6.69-18.8c1.98-3.06,4.75-5.61,7.72-9.02c-10.81,1.35-20.83,2.6-30.85,3.85
			c-7.51-1.07-14.09,2.02-20.81,4.56c-1.43,0.54-1.81,1.46-1.84,2.84c-0.08,3.23-0.3,6.45-0.38,9.68
			c-0.32,12.8,2.01,25.49,1.53,38.3c-0.01,12.06-0.04,24.11-0.02,36.17C445.17,604.08,445.54,604.52,445.73,604.96z M433.69,553.26
			c0.28-4.49,0.28-8.98-0.09-13.47c-0.01-5.11-0.01-10.21-0.04-15.32c-0.02-4.67-0.04-4.67-4.66-4.03
			c-0.62,0.09-1.22,0.23-1.84,0.31c-7.51,1.01-14.94,2.88-22.56,2.64c-2.97-0.09-3.8,0.59-3.76,3.59
			c0.29,22.55,0.46,45.11,0.53,67.67c0.01,2.1,0.57,2.69,2.51,2.41c4.72-0.69,9.46-0.29,14.16,0.13c4.39,0.39,8.7-0.27,13.03-0.62
			c1.45-0.12,3.79,0.19,3.7-2.57C434.25,580.42,434.72,566.82,433.69,553.26z M513.79,511.31c-0.48,0.12-0.98,0.18-1.43,0.37
			c-15.09,6.41-23.27,25.93-18.36,43.27c5.8,20.48,10.44,41.26,15.5,61.92c3.76,15.34,6.69,30.94,12.69,45.65
			c3.03,7.44,6.99,14.77,13.49,19.4c8.77,6.25,19.2,7.72,29.92,6.37c5.5-0.09,9.91-3.18,14.29-5.81
			c7.46-4.48,12.68-10.83,14.93-19.63c3.6-14.15,3.55-28.41,1.7-42.66c-2-15.4-4.92-30.63-9.31-45.6
			c-5.55-18.92-13.11-36.63-25.56-52.2C548.66,506.15,531.02,504.31,513.79,511.31z M430.19,301.52c-1.97-6.77-2.49-7.09-9.18-5.43
			c-1.69,0.42-3.37,0.86-5.03,1.39c-8.79,2.78-17.62,5.19-26.99,4.19c-5.53-0.59-11-1.98-16.64-1.35c-0.48-0.02-0.96-0.05-1.43-0.07
			c-0.43-0.79-0.93-0.8-1.49-0.14c-2.18-0.52-4.42-0.86-6.51-1.61c-2.53-0.9-3.3-0.23-3.26,2.42c0.08,5.1,0.32,10.21-0.62,15.28
			c-0.66,3.58-2.61,5.42-6.22,5.76c-5.51,0.52-9.17-2.31-12.29-6.38c-4.77-6.22-7.22-13.62-10.65-20.53
			c-1.01-2.03-1.68-4.28-3.75-6.06c-2.65,5.77-2.78,11.67-2.99,17.44c-0.31,8.72-0.09,17.46-0.09,26.2c0,5.55,0.01,5.43,5.68,4.84
			c10.26-1.05,20.52-2.33,30.81-2.76c15.68-0.65,31.36-1.17,47.07-1.03c17.82,0.16,35.63,0.23,53.43,1.09
			c16.9,0.81,33.8,1.66,50.7,2.49c11.4,1.69,22.89,2.97,34.2,5.16c21.64,4.19,42.83,10.01,62.78,19.7c1.78,0.87,2.61,0.9,2.78-1.46
			c0.61-8.17,1.44-16.32,2.07-24.48c0.54-7.06,0.96-14.13,1.37-21.19c0.21-3.74-0.94-6.97-4.4-8.81c-3.62-1.93-7.28-3.84-11.09-5.34
			c-14.84-5.83-30.16-9.89-45.87-12.72c-14.68-2.64-29.45-4.28-44.31-5.11c-7.37-0.41-5.68-0.54-6.93,6
			c-0.76,1.83-1.5,3.67-2.29,5.48c-1.74,3.97-3.1,8.11-6.52,11.16c-3.05,2.72-6.4,2.81-9.02-0.33c-1.5-1.8-3.08-3.62-3.9-5.88
			c-0.81-2.22-1.82-1.91-3.16-0.44c-1.51,1.65-3.1,3.23-4.72,4.78c-4.27,4.07-8.59,3.36-10.9-1.99c-1.72-3.99-2.98-8.17-4.54-12.23
			c-0.51-1.33-0.63-3.33-2.36-3.43c-1.38-0.08-2.05,1.6-2.78,2.73c-2.42,3.76-4.78,7.54-7.93,10.79
			C439.19,303.78,435.33,304.44,430.19,301.52z M527.51,391.45c-1.24-11.77-3.61-23.36-5.53-35.02c-1.17-7.11-1.17-7.11-8.09-7.51
			c-0.12-0.01-0.25,0-0.37-0.01c-15.51-1.16-31.01-2.49-46.53-3.44c-14.78-0.9-29.59-1.6-44.41-0.82
			c-19.54-0.94-39.09-0.64-58.62,0.08c-12.55,0.46-25.06,1.68-37.48,3.75c-2.83,0.47-3.52,1.47-3.54,4.23
			c-0.11,17.34,0.07,34.68,1.04,51.98c0.65,11.67,2.23,23.3,5.21,34.68c3.46,14.43,8.9,27.91,18.4,39.57
			c3.41,4.18,7.76,7.39,11.18,11.44c6.87,8.14,15.33,13.96,25.16,17.45c17.84,6.33,35.94,5.68,53.91,0.27
			c5.69-1.71,11.08-4.87,16.86-5.75c13.38-2.03,26.91-3.02,40.37-4.52c10.07-1.12,20.2-2.14,26.85-11.42
			c1.37-1.92,3.03-3.63,4.49-5.49c3.5-4.45,5.22-9.5,5.37-15.2c0.16-6-0.59-11.94-0.93-17.9c-0.24-4.1,0.34-7.36,4.78-8.7
			c4.85-0.57,9.63-1.34,13.41-4.84c9.01-8.37,10.32-19.38,10.48-30.78c0.02-1.4-1-1.57-1.92-1.82c-6.09-1.63-12.2-3.23-18.3-4.84
			C535.64,394.42,531.63,392.81,527.51,391.45z M504.14,746.42c15.34,0,30.68-0.01,46.01,0.02c2.28,0,4.07,0.03,4.16-3.2
			c0.33-12.2,0.98-24.38,1.36-36.58c0.21-6.9,0.06-6.82-6.62-8.14c-9.71-1.91-18.72-5.36-25.36-13.12
			c-5.81-6.8-9.67-14.76-12.83-23.07c-3.99-10.5-6.11-21.53-8.92-32.36c-0.61-2.33-1.39-3.26-4.09-2.91
			c-9.5,1.24-18.54,3.74-26.62,9.01c-5.67,3.7-11.1,8.01-13.33,14.63c-3.67,10.87-5.76,22.2-6.04,33.66
			c-0.46,18.69-0.36,37.38,1.28,56.04c0.52,5.97,0.18,6.02,6.11,6.03C474.21,746.43,489.17,746.42,504.14,746.42z M409.09,745.69
			c1.25,0,2.49,0.01,3.74,0c8.47-0.09,16.94-0.21,25.41-0.28c3-0.03,3.75-1.4,3.83-4.39c0.34-13.85-1.05-27.65-0.82-41.49
			c0.06-3.87-0.08-7.74,0.04-11.6c0.06-2.02-0.56-2.79-2.7-2.98c-12.36-1.1-24.7-2.4-37.06-3.56c-14.12-1.33-26.42-6.56-36.53-16.7
			c-1.26-1.27-2.38-3.84-4.18-3.18c-1.85,0.68-1.63,3.43-1.85,5.34c-1.3,11.6-2.58,23.13-1.81,34.93
			c0.86,13.16,0.22,26.41,0.98,39.61c0.15,2.59,0.53,3.77,3.5,3.72C377.46,744.82,393.26,746.29,409.09,745.69z M613.42,389.56
			c-0.05-9.5-2.43-13.35-10.88-17.67c-3.66-1.87-7.36-3.62-11.16-5.21c-17.77-7.4-36.24-12.07-55.22-15.11
			c-4.52-0.72-3.89,1.56-3.51,3.97c1.22,7.72,2.84,15.39,3.9,23.13c0.7,5.15,3.38,7.32,8.26,8.76c9.68,2.86,19.58,4.62,29.39,6.78
			c3.83,0.85,4.35,3.34,4.56,6.18c0.21,2.9-1.93,3.66-4.41,3.91c-2.19,0.22-3.41,1.22-3.75,3.76c-0.59,4.42-1.63,8.79-2.74,13.12
			c-3.37,13.07-9.37,23.91-23.82,27.33c-1.37,0.33-1.72,1.27-1.72,2.5c-0.01,7.07,0.01,14.14-0.06,21.21
			c-0.02,1.77,0.75,2.36,2.43,2.49c5.1,0.4,9.6-0.82,13.42-4.35c3.41-3.15,6.66-6.58,8.69-10.67c4.33-8.74,11.53-13.77,20.22-17.19
			c0.81-0.32,1.65-0.58,2.43-0.97c4.61-2.31,9.16-4.99,11.79-9.47C608.93,418.99,613.42,404.89,613.42,389.56z M460.39,629.27
			c-5.85,1.39-11.48-0.47-17.15-0.35c-5.08,0.11-7.71-2.53-7.9-7.69c-0.11-3.11-0.16-6.24-0.02-9.35c0.13-2.82-0.77-3.99-3.81-4
			c-8.7-0.03-17.43,0.57-26.11-0.61c-2.18-0.3-3.04,0.48-3.12,2.85c-0.11,3.53,0.92,6.91,0.87,10.4c-0.06,4.74-2.11,6.96-6.73,6.89
			c-4.34-0.06-8.67,0.22-13.03-0.57c-5.6-1.02-11.3-1.53-16.96-2.27c-1.55-0.2-2.83,0.05-2.9,1.94c-0.28,7.48-0.39,14.96,2.63,22.02
			c4.59,10.7,14.18,15.48,24.18,19.05c15.89,5.67,32.69,5.61,49.31,6.33c1.5,0.07,2.31-0.42,2.51-2.01
			c0.36-2.83,0.71-5.67,1.34-8.45c1.87-8.34,2.91-17.02,8.3-24.11C454.4,635.93,457.21,632.65,460.39,629.27z M346.86,542.55
			c-0.92,1.07-1.29,1.38-1.52,1.78c-18.06,31.85-28.44,65.85-28.62,102.68c-0.03,6.9,0.82,13.73,4.28,19.89
			c5.23,9.32,12.22,16.3,23.56,17.47c2.6,0.27,3.5-0.67,3.58-3.21c0.29-8.73,1.39-17.36,3.35-25.88c0.78-3.38,2.31-6.84,2.08-10.16
			c-0.69-9.91-1.09-19.84-2.41-29.72c-2.32-17.41-3.93-34.9-4.28-52.48C346.75,556.45,346.86,549.98,346.86,542.55z M390.35,559.53
			c0-11.84,0-23.69,0-35.53c0-1.65,0.06-3.03-2.14-3.69c-9.11-2.75-17.56-6.95-25.38-12.38c-1.95-1.36-2.65-1.52-3.21,1.32
			c-1.88,9.61-0.88,19.38-1.99,29.02c-0.23,2.04,0.62,2.98,2.74,2.96c3.23-0.03,6.51-0.12,9.66,0.74c2.54,0.7,4.73,2.25,4.42,5.18
			c-0.3,2.87-2.12,4.78-5.28,4.74c-2.86-0.04-5.69,0.92-8.55,0.26c-2.49-0.58-3.09,0.63-3.03,2.81c0.2,6.22,0.44,12.44,0.47,18.67
			c0.07,12.34,0.74,24.62,2.91,36.79c0.34,1.9,1.06,2.77,2.94,3.12c8.44,1.6,16.94,2.61,25.54,2.76c2,0.03,2.68-0.69,2.45-2.64
			c-0.33-2.84-0.6-5.69-0.76-8.55C390.27,589.93,390.2,574.73,390.35,559.53z M502.84,757c-15.69,0-31.38-0.03-47.07,0.01
			c-7.83,0.02-16.73,5.87-19.28,12.51c-1.55,4.04-0.61,5.46,3.64,5.46c21.05,0.01,42.09,0.02,63.14,0
			c14.42-0.02,28.83,1.13,43.26,0.74c5.94-0.16,7.61-1.82,7.75-7.86c0.06-2.53-0.83-4.94-0.69-7.39c0.17-2.91-0.99-3.53-3.68-3.52
			C534.22,757.05,518.53,757,502.84,757z M432.48,756.23c-2.04,0-3.23,0-4.42,0c-22.19,0-44.38,0.21-66.57-0.11
			c-7.87-0.11-12.22,4.66-16.61,9.75c-1.17,1.35-1.49,3.37-1.63,5.28c-0.16,2.18,0.51,3.12,2.9,3.11
			c25.06-0.06,50.12-0.04,75.17-0.02c1.5,0,2.49-0.18,2.89-2.03C425.47,766.48,427.59,761.09,432.48,756.23z M623.12,334.27
			c0,2.6,0.11,4.48-0.03,6.34c-0.15,1.93,0.54,3.03,2.47,3.47c10.91,2.49,21.2,7.08,32.14,9.54c2.58,0.58,3.47-0.04,4.38-2.34
			c4.46-11.22,1.37-21.45-3.77-31.47c-0.58-1.12-1.39-1.67-2.66-1.66c-9.81,0.1-19.64-0.55-29.43,0.73
			c-1.74,0.23-2.36,1.13-2.34,2.73C623.94,326.09,622.61,330.5,623.12,334.27z M620.83,365.97c0,1.11-0.11,2.86,0.02,4.6
			c0.49,6.31,1.72,12.33,6.72,16.89c4.35,3.98,6.85,4,11.21,0.02c6.78-6.19,7.04-14.42,7.2-22.69c0.06-2.95-1.64-4.37-4.29-5.11
			c-3.11-0.87-6.16-1.96-9.28-2.83C620.37,353.51,621.25,351.8,620.83,365.97z M527.92,496.59c6.48,0.58,12.63-0.13,18.4,2.17
			c1.21,0.48,2.24,0.26,1.55-1.23c-1.96-4.28-3.67-8.75-6.85-12.32c-1-1.12-2.45-2.17-4-0.09
			C534.22,488.88,531.2,492.48,527.92,496.59z"/>
		<path class="st2" d="M543.77,786.93c0.07-0.21,0.16-0.39,0.3-0.57c4.54,0,9.08-0.01,13.61-0.01c0.13,0.18,0.23,0.37,0.31,0.58
			C553.25,786.93,548.51,786.93,543.77,786.93z"/>
		<path class="st3" d="M570.86,219.25c9.3,4.13,16.59,10.68,22.58,18.79c0.96,1.3,1.89,2.63,2.2,4.27
			c-0.09,4.98-0.13,9.97-0.29,14.95c-0.11,3.73-0.73,7.4-1.33,11.08c-0.42,2.59-1.56,3.48-4.22,3.48c-6.87-0.01-13.71-0.6-20.4-1.83
			c-25.4-4.66-51.15-4.96-76.8-6.47c-5.97-0.35-11.84-1.3-17.76-1.91c-7.56-0.77-14.82-3.05-22.29-4.21
			c-0.52-0.34-1.02-0.71-1.56-1.02c-6.02-3.44-8.49-2.22-9.79,4.81c-1.53,0.51-3.03,1.14-4.59,1.51c-2.83,0.67-2.94,2.2-1.98,4.61
			c1.61,4.04,2.91,8.2,4.37,12.3c0.51,1.43,0.1,3.32,1.99,4.09c-0.09,0.48-0.04,1.08-0.31,1.42c-0.95,1.22-1.53,3.27-3.34,3.06
			c-1.53-0.18-1.34-2.17-1.77-3.38c-2.01-5.71-3.61-11.58-7.25-16.58c-1.51-2.08-3.19-4.26-6.03-3.03c-2.6,1.12-3.54,3.65-3.4,6.47
			c0.04,0.74,0.17,1.47,0.26,2.21c-5.44,4.24-11.83,6.7-17.87,9.83c-5.67,2.94-11.97,3.9-17.79,6.29
			c-6.52,0.4-12.76-1.18-19.02-2.63c-1.94-0.45-2.37-1.2-1.98-3.35c1.17-6.51-2.49-10.44-8.47-9.55c-4.7-2.12-8.34-0.51-10.24,4.3
			c-1.15,2.92-1.35,6-1.98,9.01c-0.31,1.45-0.55,2.69-2.36,2.72c-2.43-5.24-1.42-11.06-2.76-16.48c-0.72-2.9-1.02-6.42-4.74-6.67
			c-3.73-0.25-4.63,3.29-5.72,6c-1.65,4.08-2.89,4.6-6.73,2.34c-4.24-2.49-6.76-8.41-5.92-13.91c0.59-1.42,1.93-2.48,1.99-4.15
			c3.03-6.09,6.09-12.2,10.76-17.23c6.22-6.72,14.59-9.72,22.92-12.72c5.56-2.01,9.96-5.29,13.04-10.53
			c2.86-4.87,6.52-9.16,12.06-11.25c21.1-7.96,42.87-12.67,65.43-13.6c8.75-0.36,17.42,0.59,26.09,1.46
			c17.83,1.79,35.7,3.18,53.27,7.03c17.42,3.82,33.47,11.23,49.6,18.44C569.54,219.59,570.11,220.31,570.86,219.25z"/>
		<path class="st4" d="M329.18,439.36c-2.97-11.37-4.55-23-5.21-34.68c-0.97-17.3-1.16-34.64-1.04-51.98
			c0.02-2.76,0.71-3.76,3.54-4.23c12.42-2.07,24.93-3.29,37.48-3.75c19.53-0.72,39.08-1.02,58.62-0.08
			c0.88,0.76,1.97,0.96,3.06,1.22c14.77,3.49,29.91,3.74,44.91,5.23c7.37,0.73,14.78,1.21,22.06,2.73c1.8,0.37,3.05,1.01,3.21,2.96
			c0.78,9.13,1.88,18.25,2.23,27.39c0.65,17.14,0.21,34.29-2.3,51.28c-0.71,4.82-0.46,10.21-4.47,14.1
			c-2.04,0.52-4.09,1.03-6.13,1.57c-8.3,2.19-16.27,5.42-24.67,7.33c-3.83,0.87-5.97,0.22-7.47-3.61c-1.9-4.86-4.19-9.6-6.64-14.22
			c-3.13-5.89-7.8-10.24-14.73-10.76c-17.75-1.33-35.51-2.48-53.33-0.96c-5.12,0.44-8.77,2.24-11.32,6.99
			c-2.61,4.87-4.13,10.14-6.42,15.1c-2.64,5.7-2.51,5.57-7.42,1.83C345.8,447.22,338.08,442.22,329.18,439.36z M431.97,366.04
			c-0.13,3.91,2.06,5.85,5.56,5.5c4.63-0.47,9.08-1.82,13.37-3.37c5.69-2.05,10.02-0.6,14.15,3.4c2.86,2.76,6.06,5.19,9.73,6.86
			c2.57,1.17,4.67,0.32,6.08-1.98c1.28-2.08,1.5-4.07-0.75-5.93c-4.98-4.13-9.85-8.4-14.73-12.65c-1.4-1.22-2.92-1.7-4.77-1.62
			c-8.93,0.37-17.37,2.92-25.73,5.79C432.85,362.75,432.2,364.47,431.97,366.04z M362.92,375.21c3.02,0.29,5.06-1.04,5.73-4.03
			c0.72-3.21-1.12-4.71-3.95-5.7c-5.63-1.97-11.47-3.53-16.89-5.86c-7.16-3.08-13.05,1.22-17.09,5.62
			c-2.45,2.66-3.13,7.33-1.48,8.95c3,2.95,5.69,0.95,8.33-0.79c0.42-0.27,0.89-0.5,1.22-0.85c2.79-2.94,5.83-2.82,9.52-1.62
			C353.11,372.5,357.57,375.35,362.92,375.21z M358.32,390.32c-0.04-0.75-0.02-1.5-0.14-2.24c-0.64-4.18-3.92-7.61-7.41-7.79
			c-3.42-0.17-6.71,2.62-7.85,6.77c-0.9,3.25-0.47,6.44,0.9,9.46c1.19,2.62,3.1,4.59,6.15,4.77c2.94,0.17,4.8-1.65,6.32-3.92
			C357.72,395.23,358.39,392.88,358.32,390.32z M455.99,388.57c-0.11-2.27-0.81-4.98-2.63-7.36c-1.77-2.31-3.97-2.9-6.57-1.73
			c-3.64,1.64-4.77,4.79-4.9,8.51c-0.14,3.93,0.53,7.58,4.33,9.57C451.04,400.08,456.05,395.72,455.99,388.57z"/>
		<path class="st3" d="M329.18,439.36c8.9,2.86,16.62,7.86,23.96,13.46c4.91,3.74,4.78,3.87,7.42-1.83
			c2.3-4.96,3.81-10.23,6.42-15.1c2.54-4.74,6.2-6.55,11.32-6.99c17.82-1.53,35.58-0.37,53.33,0.96
			c6.93,0.52,11.59,4.87,14.73,10.76c2.45,4.62,4.74,9.36,6.64,14.22c1.5,3.83,3.64,4.49,7.47,3.61c8.4-1.91,16.37-5.15,24.67-7.33
			c2.04-0.54,4.09-1.05,6.13-1.57c3.13,0.26,6.07-0.83,9.1-1.23c3.05-0.4,4.52-1.96,5.37-5.03c3.53-12.67,7.89-25.08,13.54-36.97
			c2.42-5.11,4.26-10.6,8.23-14.87c4.12,1.37,8.13,2.98,11.77,5.39c-4.51,6.11-5.83,13.01-5.32,20.47
			c0.38,5.57,0.62,11.17,0.39,16.73c-0.08,2.02,0.06,3.57,1.26,5.08c-4.45,1.34-5.02,4.59-4.78,8.7c0.35,5.96,1.09,11.9,0.93,17.9
			c-0.15,5.7-1.87,10.75-5.37,15.2c-1.46,1.86-3.12,3.57-4.49,5.49c-6.65,9.27-16.78,10.3-26.85,11.42
			c-13.46,1.5-26.99,2.49-40.37,4.52c-5.77,0.88-11.17,4.04-16.86,5.75c-17.97,5.41-36.07,6.06-53.91-0.27
			c-9.83-3.49-18.3-9.31-25.16-17.45c-3.42-4.05-7.77-7.25-11.18-11.44C338.08,467.27,332.65,453.79,329.18,439.36z M402.42,448.42
			c-6.38-0.04-14.61,1.13-22.81,2.52c-3.83,0.65-6.93,2.29-9.16,5.73c-1.71,2.64-2.81,5.55-4.43,8.2
			c-4.92,8.02-1.87,12.48,4.38,17.58c6.01,4.92,8.64,4.66,14.82-0.06c2.13-1.63,4.43-2.37,7.17-2.68c4.49-0.5,8.91,0.07,13.33,0.3
			c6.86,0.36,13.53,1.43,18.59,7.03c2.41,2.67,5.64,3.22,9.25,1.83c3.38-1.3,6.66-2.8,9.8-4.55c5.31-2.95,6.52-5.96,5.07-11.7
			c-1.23-4.85-3.4-9.32-5.37-13.89c-1.59-3.69-4.36-5.6-8.12-6.28C424.83,450.63,414.76,448.39,402.42,448.42z"/>
		<path class="st5" d="M504.14,746.42c-14.96,0-29.93,0.01-44.89,0c-5.93,0-5.59-0.05-6.11-6.03c-1.64-18.66-1.73-37.35-1.28-56.04
			c0.28-11.46,2.37-22.78,6.04-33.66c2.23-6.62,7.66-10.93,13.33-14.63c8.07-5.27,17.12-7.77,26.62-9.01
			c2.7-0.35,3.48,0.58,4.09,2.91c2.81,10.83,4.93,21.86,8.92,32.36c3.16,8.31,7.01,16.27,12.83,23.07
			c6.64,7.77,15.65,11.21,25.36,13.12c6.69,1.32,6.84,1.24,6.62,8.14c-0.38,12.2-1.03,24.38-1.36,36.58
			c-0.09,3.23-1.88,3.2-4.16,3.2C534.81,746.4,519.48,746.42,504.14,746.42z M509.42,666.47c-0.02-3.41-1.86-5.31-5.19-5.37
			c-3.51-0.06-6.94,3.48-6.77,6.99c0.13,2.65,3,5.57,5.53,5.61C506.43,673.76,509.45,670.37,509.42,666.47z"/>
		<path class="st6" d="M510.73,337.27c-16.9-0.83-33.8-1.69-50.7-2.49c-17.8-0.85-35.61-0.93-53.43-1.09
			c-15.71-0.14-31.39,0.38-47.07,1.03c-10.29,0.43-20.55,1.71-30.81,2.76c-5.67,0.58-5.68,0.7-5.68-4.84
			c0-8.73-0.22-17.47,0.09-26.2c0.21-5.77,0.34-11.66,2.99-17.44c2.07,1.77,2.75,4.03,3.75,6.06c3.42,6.91,5.88,14.31,10.65,20.53
			c3.12,4.07,6.79,6.89,12.29,6.38c3.61-0.34,5.56-2.17,6.22-5.76c0.94-5.08,0.7-10.19,0.62-15.28c-0.04-2.65,0.72-3.32,3.26-2.42
			c2.1,0.74,4.34,1.09,6.51,1.61c0.43,0.74,0.92,0.84,1.49,0.14c0.48,0.02,0.96,0.05,1.43,0.07c0.19,0.84,0.74,1.2,1.58,1.3
			c5.64,0.61,11.24,1.62,16.95,1.55c13.12-0.15,26.22-0.81,39.31-1.65c5.14,2.92,9.01,2.26,13-1.87c3.15-3.25,5.51-7.03,7.93-10.79
			c0.73-1.13,1.4-2.81,2.78-2.73c1.73,0.1,1.85,2.11,2.36,3.43c1.56,4.06,2.82,8.24,4.54,12.23c2.3,5.35,6.63,6.07,10.9,1.99
			c1.62-1.55,3.21-3.13,4.72-4.78c1.35-1.47,2.35-1.78,3.16,0.44c0.83,2.26,2.4,4.08,3.9,5.88c2.62,3.13,5.97,3.04,9.02,0.33
			c3.42-3.05,4.78-7.19,6.52-11.16c0.79-1.81,1.53-3.66,2.29-5.48c4.55,0.47,9.12,0.85,13.66,1.42c11.6,1.44,22.94,3.97,34.03,7.74
			c2.6,0.89,3.21,2.31,2.99,4.7c-0.75,8.19-2.31,16.2-5.02,23.99c-0.6,1.74-1.85,2.12-3.29,2.62c-7.54,2.62-15.4,3.76-23.21,5.18
			C517.2,335.27,513.59,334.96,510.73,337.27z"/>
		<path class="st4" d="M565.6,688.29c-10.72,1.35-21.15-0.12-29.92-6.37c-6.5-4.63-10.45-11.96-13.49-19.4
			c-6-14.71-8.94-30.31-12.69-45.65c-5.06-20.67-9.69-41.44-15.5-61.92c-4.91-17.34,3.26-36.85,18.36-43.27
			c0.45-0.19,0.95-0.25,1.43-0.37c0.3,0.39,0.52,0.9,0.91,1.15c6.19,3.96,11.04,9.12,14.75,15.51c4.02,6.92,7.07,14.29,10.44,21.5
			c5.23,11.17,8.96,22.92,11.38,35.01c3.9,19.44,7.35,38.96,11.18,58.41c2.56,12.99,4.05,25.99,2.33,39.22
			C564.53,684.16,564.31,686.37,565.6,688.29z M534.9,546.66c0.06-3.41-2.32-5.98-5.68-6.11c-2.74-0.11-5.58,3.12-5.57,6.35
			c0.01,3.31,2.33,5.64,5.65,5.67C532.92,552.61,534.83,550.58,534.9,546.66z"/>
		<path class="st7" d="M565.6,688.29c-1.29-1.92-1.07-4.13-0.81-6.18c1.72-13.23,0.23-26.23-2.33-39.22
			c-3.83-19.45-7.28-38.98-11.18-58.41c-2.42-12.09-6.15-23.84-11.38-35.01c-3.38-7.21-6.43-14.58-10.44-21.5
			c-3.71-6.39-8.56-11.55-14.75-15.51c-0.39-0.25-0.61-0.76-0.91-1.15c17.23-7,34.87-5.16,47.85,11.08
			c12.45,15.57,20.02,33.28,25.56,52.2c4.39,14.97,7.31,30.2,9.31,45.6c1.85,14.25,1.9,28.51-1.7,42.66
			c-2.24,8.8-7.46,15.15-14.93,19.63C575.51,685.11,571.1,688.2,565.6,688.29z"/>
		<path class="st5" d="M409.09,745.69c-15.82,0.59-31.62-0.87-47.44-0.6c-2.97,0.05-3.35-1.13-3.5-3.72
			c-0.77-13.2-0.13-26.45-0.98-39.61c-0.77-11.8,0.51-23.33,1.81-34.93c0.21-1.92,0-4.67,1.85-5.34c1.8-0.66,2.91,1.92,4.18,3.18
			c10.11,10.14,22.41,15.37,36.53,16.7c12.36,1.16,24.7,2.47,37.06,3.56c2.14,0.19,2.76,0.96,2.7,2.98
			c-0.12,3.86,0.03,7.74-0.04,11.6c-0.23,13.84,1.16,27.64,0.82,41.49c-0.07,2.99-0.83,4.37-3.83,4.39
			c-8.47,0.07-16.94,0.19-25.41,0.28C411.58,745.71,410.33,745.69,409.09,745.69z"/>
		<path class="st5" d="M613.42,389.56c0,15.34-4.49,29.44-12.17,42.52c-2.63,4.48-7.18,7.16-11.79,9.47
			c-0.78,0.39-1.62,0.65-2.43,0.97c-8.69,3.42-15.88,8.45-20.22,17.19c-2.03,4.09-5.27,7.52-8.69,10.67
			c-3.82,3.52-8.32,4.75-13.42,4.35c-1.69-0.13-2.45-0.72-2.43-2.49c0.07-7.07,0.05-14.14,0.06-21.21c0-1.23,0.34-2.18,1.72-2.5
			c14.45-3.42,20.45-14.27,23.82-27.33c1.11-4.32,2.15-8.7,2.74-13.12c0.34-2.54,1.56-3.54,3.75-3.76c2.49-0.25,4.62-1.02,4.41-3.91
			c-0.21-2.84-0.73-5.34-4.56-6.18c-9.81-2.16-19.71-3.92-29.39-6.78c-4.88-1.44-7.56-3.61-8.26-8.76
			c-1.05-7.74-2.68-15.41-3.9-23.13c-0.38-2.42-1.01-4.7,3.51-3.97c18.98,3.04,37.45,7.71,55.22,15.11c3.8,1.58,7.5,3.34,11.16,5.21
			C610.99,376.21,613.37,380.06,613.42,389.56z"/>
		<path class="st8" d="M510.73,337.27c2.86-2.32,6.47-2.01,9.76-2.61c7.81-1.43,15.66-2.56,23.21-5.18c1.43-0.5,2.68-0.88,3.29-2.62
			c2.71-7.79,4.26-15.8,5.02-23.99c0.22-2.39-0.38-3.82-2.99-4.7c-11.09-3.77-22.43-6.3-34.03-7.74c-4.54-0.56-9.11-0.95-13.66-1.42
			c1.26-6.53-0.44-6.41,6.94-6c14.86,0.83,29.64,2.47,44.31,5.11c15.7,2.82,31.03,6.88,45.87,12.72c3.81,1.5,7.47,3.42,11.09,5.34
			c3.47,1.84,4.62,5.07,4.4,8.81c-0.4,7.07-0.82,14.14-1.37,21.19c-0.63,8.17-1.47,16.32-2.07,24.48c-0.17,2.36-1,2.32-2.78,1.46
			c-19.94-9.69-41.14-15.51-62.78-19.7C533.62,340.24,522.14,338.96,510.73,337.27z"/>
		<path class="st5" d="M460.39,629.27c-3.17,3.38-5.98,6.66-8.58,10.08c-5.39,7.08-6.43,15.76-8.3,24.11
			c-0.62,2.78-0.97,5.62-1.34,8.45c-0.2,1.58-1.01,2.07-2.51,2.01c-16.62-0.72-33.42-0.66-49.31-6.33
			c-10-3.57-19.59-8.35-24.18-19.05c-3.02-7.05-2.92-14.54-2.63-22.02c0.07-1.88,1.35-2.14,2.9-1.94
			c5.66,0.74,11.35,1.25,16.96,2.27c4.35,0.79,8.68,0.52,13.03,0.57c4.62,0.06,6.66-2.16,6.73-6.89c0.05-3.49-0.98-6.88-0.87-10.4
			c0.08-2.37,0.94-3.15,3.12-2.85c8.68,1.18,17.41,0.58,26.11,0.61c3.04,0.01,3.94,1.18,3.81,4c-0.14,3.11-0.09,6.24,0.02,9.35
			c0.18,5.16,2.82,7.8,7.9,7.69C448.91,628.8,454.54,630.66,460.39,629.27z"/>
		<path class="st2" d="M346.86,542.55c0,7.44-0.11,13.91,0.02,20.37c0.36,17.58,1.96,35.07,4.28,52.48
			c1.32,9.88,1.72,19.81,2.41,29.72c0.23,3.32-1.3,6.78-2.08,10.16c-1.97,8.52-3.07,17.15-3.35,25.88
			c-0.08,2.54-0.98,3.48-3.58,3.21c-11.33-1.17-18.33-8.15-23.56-17.47c-3.46-6.16-4.31-12.99-4.28-19.89
			c0.19-36.83,10.56-70.83,28.62-102.68C345.57,543.93,345.94,543.62,346.86,542.55z"/>
		<path class="st9" d="M390.36,559.53c-0.15,15.2-0.09,30.41,0.79,45.59c0.17,2.85,0.43,5.71,0.76,8.55
			c0.23,1.95-0.45,2.67-2.45,2.64c-8.6-0.14-17.1-1.16-25.54-2.76c-1.89-0.36-2.61-1.22-2.94-3.12
			c-2.17-12.18-2.84-24.45-2.91-36.79c-0.03-6.22-0.28-12.45-0.47-18.67c-0.07-2.17,0.54-3.38,3.03-2.81
			c2.86,0.66,5.69-0.29,8.55-0.26c3.15,0.04,4.98-1.87,5.28-4.74c0.3-2.93-1.88-4.48-4.42-5.18c-3.14-0.87-6.42-0.77-9.66-0.74
			c-2.12,0.02-2.97-0.92-2.74-2.96c1.1-9.64,0.11-19.41,1.99-29.02c0.56-2.84,1.26-2.68,3.21-1.32c7.82,5.44,16.27,9.63,25.38,12.38
			c2.2,0.66,2.14,2.05,2.14,3.69C390.35,535.84,390.35,547.68,390.36,559.53z"/>
		<path class="st7" d="M527.51,391.45c-3.97,4.27-5.8,9.76-8.23,14.87c-5.64,11.89-10.01,24.3-13.54,36.97
			c-0.86,3.07-2.32,4.63-5.37,5.03c-3.03,0.4-5.97,1.49-9.1,1.23c4.01-3.89,3.75-9.28,4.47-14.1c2.52-16.99,2.96-34.14,2.3-51.28
			c-0.35-9.15-1.45-18.26-2.23-27.39c-0.17-1.95-1.42-2.58-3.21-2.96c-7.28-1.52-14.69-2-22.06-2.73c-15-1.48-30.14-1.73-44.91-5.23
			c-1.1-0.26-2.18-0.46-3.06-1.22c14.82-0.77,29.63-0.08,44.41,0.82c15.52,0.95,31.02,2.28,46.53,3.44c0.12,0.01,0.25,0,0.37,0.01
			c6.92,0.4,6.92,0.4,8.09,7.51C523.9,368.09,526.27,379.68,527.51,391.45z"/>
		<path class="st5" d="M452.55,257.4c7.48,1.16,14.73,3.44,22.29,4.21c5.92,0.6,11.79,1.55,17.76,1.91
			c25.65,1.52,51.39,1.82,76.8,6.47c6.69,1.23,13.54,1.81,20.4,1.83c2.66,0.01,3.79-0.89,4.22-3.48c0.6-3.68,1.22-7.36,1.33-11.08
			c0.15-4.98,0.2-9.96,0.29-14.95c6.15,7.69,11.15,16.08,15.54,24.88c3.69,7.38,5.79,15.07,5.14,23.39c-0.02,0.25,0,0.5-0.01,0.75
			c-0.32,5.06-0.84,5.53-5.33,3.41c-20.21-9.54-41.66-14.85-63.57-18.22c-12.11-1.86-24.29-3.74-36.6-4.12
			c-3.53-0.11-6.35-1.95-9.16-3.83c-4.03-2.7-6.31-1.8-7.5,2.8c-1.31,5.04-1.35,10.37-3.53,15.2c-0.51,1.12-1.03,2.24-1.7,3.69
			c-2.33-2.35-3.11-5.24-4.51-7.74c-0.97-1.73-1.68-3.59-3.25-4.96c-3.31-2.9-6.14-2.33-7.83,1.7c-1.25,2.98-2.39,6.01-3.73,8.95
			c-0.48,1.05-1.44,2.15-2.22,0.09C463.31,277.57,457.14,267.87,452.55,257.4z"/>
		<path class="st10" d="M433.69,553.26c1.03,13.56,0.56,27.16,1,40.73c0.09,2.76-2.26,2.46-3.7,2.57
			c-4.33,0.35-8.64,1.01-13.03,0.62c-4.7-0.42-9.44-0.82-14.16-0.13c-1.94,0.28-2.5-0.31-2.51-2.41
			c-0.08-22.56-0.24-45.11-0.53-67.67c-0.04-3,0.79-3.68,3.76-3.59c7.62,0.24,15.05-1.63,22.56-2.64c0.62-0.08,1.22-0.23,1.84-0.31
			c4.62-0.64,4.64-0.64,4.66,4.03c0.03,5.11,0.03,10.21,0.04,15.32c-3.86,0-7.72-0.02-11.58,0.02c-4.48,0.04-6.82,2.07-6.96,5.99
			c-0.14,3.96,1.96,6,6.38,6.77C425.52,553.27,429.59,553.32,433.69,553.26z"/>
		<path class="st9" d="M445.19,567.47c0.48-12.81-1.85-25.5-1.53-38.3c0.08-3.23,0.31-6.45,0.38-9.68c0.03-1.38,0.41-2.3,1.84-2.84
			c6.72-2.54,13.31-5.63,20.81-4.56c0.12,1.23,0.27,2.46,0.35,3.69c0.58,9.44,2.33,19.05-4.15,27.42c-2.43,0.93-3.52,2.71-2.92,5.22
			c0.72,3.06,2.83,4.69,5.95,5.02c3.46,12.77,3.47,25.85,2.83,38.87c-0.24,4.78-0.34,9.65-1.24,14.43
			c-0.42,2.23-1.16,3.94-3.51,4.12c-6.05,0.47-12,2.07-18.12,1.56c-0.05-2.48-0.09-4.96-0.14-7.45c0.69-0.5,0.76-1.23,0.76-1.99
			c0-11.06-0.01-22.12,0-33.17C446.49,568.77,446.5,567.76,445.19,567.47z"/>
		<path class="st11" d="M502.84,757c15.69,0,31.38,0.06,47.07-0.05c2.69-0.02,3.85,0.6,3.68,3.52c-0.15,2.45,0.75,4.87,0.69,7.39
			c-0.14,6.05-1.81,7.7-7.75,7.86c-14.43,0.39-28.83-0.75-43.26-0.74c-21.05,0.02-42.09,0.01-63.14,0c-4.26,0-5.19-1.42-3.64-5.46
			c2.55-6.64,11.45-12.49,19.28-12.51C471.46,756.97,487.15,757,502.84,757z"/>
		<path class="st12" d="M570.86,219.25c-0.74,1.06-1.32,0.34-2.14-0.03c-16.13-7.22-32.18-14.62-49.6-18.44
			c-17.57-3.85-35.44-5.24-53.27-7.03c-8.67-0.87-17.34-1.82-26.09-1.46c-22.56,0.93-44.33,5.65-65.43,13.6
			c-5.54,2.09-9.2,6.38-12.06,11.25c-3.08,5.24-7.48,8.52-13.04,10.53c-8.33,3-16.7,6-22.92,12.72
			c-4.66,5.04-7.72,11.14-10.76,17.23c-0.3-0.5-0.6-0.99-0.9-1.48c3.39-14.74,11.27-26.09,25.04-32.9c2.92-1.44,6.24-1.99,9.41-1.92
			c2.49,0.05,3.92-0.65,5.14-2.64c0.97-1.59,2.43-2.89,3.29-4.53c4.9-9.35,13.54-13.92,22.64-17.89
			c18.33-8.01,37.69-10.56,57.5-10.77c16.47-0.17,32.88,1.06,49.31,1.59c25.08,0.81,47.5,9.61,68.73,22.21
			c4.17,2.48,8.33,4.97,12.47,7.51C569.2,217.43,570.45,217.9,570.86,219.25z"/>
		<path class="st13" d="M445.87,612.41c6.13,0.51,12.08-1.09,18.12-1.56c2.36-0.18,3.09-1.89,3.51-4.12c0.9-4.78,1-9.65,1.24-14.43
			c0.65-13.03,0.64-26.1-2.83-38.87c4.83-0.45,9.64-1.05,14.52-0.95c1.81,0.04,2.54,0.59,2.99,2.42
			c4.76,19.57,9.63,39.11,14.49,58.66c0.51,2.04,0.31,3.2-2.31,3.38c-14.52,1-29.05,1.79-43.59,2.16
			C445.46,619.27,445.46,619.16,445.87,612.41z"/>
		<path class="st11" d="M432.48,756.23c-4.89,4.86-7,10.25-8.26,15.98c-0.41,1.86-1.39,2.03-2.89,2.03
			c-25.06-0.02-50.12-0.04-75.17,0.02c-2.39,0.01-3.06-0.93-2.9-3.11c0.14-1.91,0.46-3.93,1.63-5.28c4.39-5.09,8.74-9.86,16.61-9.75
			c22.19,0.32,44.38,0.11,66.57,0.11C429.25,756.23,430.44,756.23,432.48,756.23z"/>
		<path class="st8" d="M623.12,334.27c-0.51-3.77,0.82-8.18,0.75-12.66c-0.02-1.59,0.59-2.5,2.34-2.73
			c9.79-1.29,19.61-0.63,29.43-0.73c1.26-0.01,2.08,0.54,2.66,1.66c5.15,10.02,8.23,20.25,3.77,31.47c-0.91,2.3-1.8,2.92-4.38,2.34
			c-10.93-2.47-21.22-7.05-32.14-9.54c-1.93-0.44-2.61-1.53-2.47-3.47C623.23,338.75,623.12,336.87,623.12,334.27z"/>
		<path class="st2" d="M535.61,439.12c-1.21-1.51-1.35-3.06-1.26-5.08c0.23-5.56-0.01-11.17-0.39-16.73
			c-0.51-7.47,0.81-14.36,5.32-20.47c6.1,1.61,12.2,3.21,18.3,4.84c0.92,0.25,1.94,0.42,1.92,1.82
			c-0.15,11.41-1.46,22.41-10.48,30.78C545.25,437.78,540.46,438.55,535.61,439.12z"/>
		<path class="st8" d="M620.83,365.97c0.41-14.17-0.46-12.47,11.58-9.12c3.11,0.87,6.16,1.96,9.28,2.83
			c2.65,0.74,4.35,2.17,4.29,5.11c-0.17,8.27-0.42,16.5-7.2,22.69c-4.36,3.98-6.86,3.96-11.21-0.02c-5-4.57-6.23-10.58-6.72-16.89
			C620.72,368.84,620.83,367.08,620.83,365.97z"/>
		<path class="st13" d="M462.9,543.19c6.48-8.36,4.74-17.98,4.15-27.42c-0.08-1.23-0.23-2.46-0.35-3.69
			c10.02-1.25,20.04-2.5,30.85-3.85c-2.97,3.42-5.74,5.97-7.72,9.02c-3.68,5.68-5.91,12.05-6.69,18.8
			c-0.63,5.49-0.52,5.33-5.79,6.14C472.54,542.93,467.69,542.56,462.9,543.19z"/>
		<path class="st5" d="M383.48,290c5.82-2.38,12.12-3.35,17.79-6.29c6.04-3.13,12.44-5.59,17.87-9.83c2.73,2.46,3.25,5.93,4.11,9.22
			c0.29,1.12-0.32,1.82-1.48,2.18c-12.02,3.75-24.22,6.34-36.92,5.79C384.17,291.04,383.73,290.63,383.48,290z"/>
		<path class="st5" d="M339.43,290.49c1.81-0.02,2.05-1.27,2.36-2.72c0.64-3,0.83-6.09,1.98-9.01c1.9-4.8,5.53-6.41,10.24-4.3
			c-3.21,10.16-4.69,20.64-5.93,32.15C343.83,301.38,341.26,296.15,339.43,290.49z"/>
		<path class="st7" d="M433.69,553.26c-4.1,0.05-8.17,0-12.25-0.7c-4.42-0.76-6.52-2.81-6.38-6.77c0.14-3.92,2.48-5.95,6.96-5.99
			c3.86-0.03,7.72-0.01,11.58-0.02C433.97,544.28,433.97,548.77,433.69,553.26z"/>
		<path class="st8" d="M430.19,301.52c-13.09,0.83-26.19,1.5-39.31,1.65c-5.71,0.06-11.31-0.94-16.95-1.55
			c-0.84-0.09-1.39-0.45-1.58-1.3c5.63-0.63,11.1,0.76,16.64,1.35c9.38,1,18.21-1.41,26.99-4.19c1.66-0.52,3.34-0.97,5.03-1.39
			C427.7,294.43,428.22,294.75,430.19,301.52z"/>
		<path class="st5" d="M440.98,283.71c-1.89-0.77-1.48-2.66-1.99-4.09c-1.46-4.1-2.76-8.26-4.37-12.3
			c-0.96-2.41-0.85-3.94,1.98-4.61c1.56-0.37,3.06-1,4.59-1.51c5.34,4.37,5.35,9.98,3.28,15.78
			C443.65,279.32,443.37,282.12,440.98,283.71z"/>
		<path class="st13" d="M527.92,496.59c3.28-4.11,6.3-7.71,9.1-11.46c1.55-2.08,3-1.02,4,0.09c3.19,3.56,4.89,8.04,6.85,12.32
			c0.68,1.49-0.34,1.71-1.55,1.23C540.55,496.46,534.4,497.17,527.92,496.59z"/>
		<path class="st13" d="M445.19,567.47c1.3,0.29,1.29,1.3,1.29,2.33c0,11.06,0,22.12,0,33.17c0,0.76-0.07,1.49-0.76,1.99
			c-0.19-0.44-0.56-0.88-0.56-1.32C445.16,591.58,445.18,579.52,445.19,567.47z"/>
		<path class="st10" d="M314.64,256.13c0.3,0.49,0.6,0.99,0.9,1.48c-0.07,1.67-1.4,2.73-1.99,4.15
			C313.21,259.75,313.85,257.93,314.64,256.13z"/>
		<path class="st8" d="M370.91,300.26c-0.56,0.7-1.06,0.6-1.49-0.14C369.99,299.45,370.49,299.47,370.91,300.26z"/>
		<path class="st14" d="M431.97,366.04c0.23-1.57,0.88-3.29,2.92-4c8.36-2.88,16.79-5.43,25.73-5.79c1.85-0.08,3.37,0.41,4.77,1.62
			c4.88,4.25,9.75,8.52,14.73,12.65c2.24,1.86,2.02,3.85,0.75,5.93c-1.41,2.3-3.51,3.15-6.08,1.98c-3.66-1.67-6.87-4.1-9.73-6.86
			c-4.13-3.99-8.47-5.44-14.15-3.4c-4.3,1.55-8.75,2.9-13.37,3.37C434.03,371.89,431.84,369.95,431.97,366.04z"/>
		<path class="st14" d="M362.92,375.21c-5.34,0.14-9.81-2.71-14.61-4.28c-3.69-1.2-6.74-1.32-9.52,1.62
			c-0.34,0.35-0.81,0.58-1.22,0.85c-2.64,1.73-5.33,3.73-8.33,0.79c-1.65-1.63-0.97-6.29,1.48-8.95c4.04-4.4,9.93-8.7,17.09-5.62
			c5.42,2.34,11.26,3.9,16.89,5.86c2.84,0.99,4.67,2.49,3.95,5.7C367.98,374.17,365.94,375.5,362.92,375.21z"/>
		<path class="st1" d="M358.32,390.32c0.07,2.57-0.59,4.91-2.02,7.05c-1.52,2.27-3.39,4.1-6.32,3.92c-3.05-0.18-4.96-2.15-6.15-4.77
			c-1.37-3.02-1.8-6.2-0.9-9.46c1.15-4.15,4.43-6.94,7.85-6.77c3.49,0.17,6.77,3.61,7.41,7.79
			C358.29,388.81,358.27,389.57,358.32,390.32z"/>
		<path class="st1" d="M455.99,388.57c0.06,7.15-4.95,11.51-9.76,9c-3.8-1.99-4.48-5.64-4.33-9.57c0.14-3.72,1.26-6.87,4.9-8.51
			c2.6-1.17,4.8-0.58,6.57,1.73C455.18,383.59,455.87,386.3,455.99,388.57z"/>
		<path class="st7" d="M402.42,448.42c12.34-0.03,22.41,2.21,32.53,4.04c3.76,0.68,6.53,2.59,8.12,6.28
			c1.97,4.57,4.14,9.04,5.37,13.89c1.45,5.75,0.24,8.76-5.07,11.7c-3.15,1.75-6.42,3.25-9.8,4.55c-3.61,1.39-6.84,0.83-9.25-1.83
			c-5.07-5.61-11.73-6.68-18.59-7.03c-4.42-0.23-8.84-0.8-13.33-0.3c-2.74,0.3-5.04,1.05-7.17,2.68c-6.18,4.72-8.81,4.98-14.82,0.06
			c-6.24-5.1-9.3-9.57-4.38-17.58c1.62-2.65,2.72-5.56,4.43-8.2c2.22-3.43,5.33-5.08,9.16-5.73
			C387.81,449.55,396.04,448.38,402.42,448.42z"/>
		<path class="st1" d="M509.42,666.47c0.02,3.9-2.99,7.29-6.43,7.23c-2.52-0.04-5.4-2.96-5.53-5.61c-0.17-3.51,3.26-7.05,6.77-6.99
			C507.56,661.16,509.4,663.06,509.42,666.47z"/>
		<path class="st1" d="M534.9,546.66c-0.07,3.93-1.99,5.95-5.6,5.91c-3.32-0.03-5.65-2.37-5.65-5.67c-0.01-3.23,2.83-6.45,5.57-6.35
			C532.58,540.68,534.97,543.24,534.9,546.66z"/>
	</g>
</g>
</svg>
